# xmcd
#
# Track frame offsets:
#	150
#	12294
#	25886
#	37239
#	48523
#	63598
#	73926
#	85657
#	98522
#	109260
#	119992
#	135244
#	155515
#	168906
#	181205
#
# Disc length: 2655
#
# Revision: 3
# Processed by: cddbd v1.5.1PL0 Copyright (c) Steve Scherf et al.
# Submitted via: audiograbber 1.83.01
# Normalized: r2:DSETVAR1
#
DISCID=cc0a5d0f
DTITLE=Various Artist - Classic Country 1965-1969 - disc2
DYEAR=1900
DGENRE=Country
TTITLE0=Tammy Wynette - Stand By Your Man
TTITLE1=David Houston - Almost Persuaded
TTITLE2=Buck Owens - Cryin' Time
TTITLE3=Sonny James - Take Good Care Of Her
TTITLE4=Marty Robbins - I Walk Alone
TTITLE5=Jim Reeves - Is It Really Over
TTITLE6=Jack Greene - There Goes My Everything
TTITLE7=Conway Twitty - Next In Line
TTITLE8=Porter Wagner And Dolly Parton - Just Someone I Used To Know
TTITLE9=Porter Wagner - Green Green Grass Of Home
TTITLE10=Jim Reeves - Blue Side Of Lonesome
TTITLE11=Elvis Presley - Suspicious Minds
TTITLE12=Charlie Pride - All I Have To Offer You (Is Me)
TTITLE13=Glen Cambell - Galveston
TTITLE14=Bobby Goldsboro - Honey
EXTD=
EXTT0=
EXTT1=
EXTT2=
EXTT3=
EXTT4=
EXTT5=
EXTT6=
EXTT7=
EXTT8=
EXTT9=
EXTT10=
EXTT11=
EXTT12=
EXTT13=
EXTT14=
PLAYORDER=
